<svg
	width="100%"
	height="100%"
	id="svg"
	viewBox="0 0 1440 390"
	xmlns="http://www.w3.org/2000/svg"
	class="transition duration-300 ease-in-out delay-150"
>
	<defs>
		<linearGradient id="gradient" x1="50%" y1="100%" x2="50%" y2="0%">
			<stop offset="5%" stop-color="#003566"></stop>
			<stop offset="95%" stop-color="#00b4d8"></stop>
		</linearGradient>
	</defs>
	<path
		d="M 0,400 C 0,400 0,133 0,133 C 109.0025641025641,134.16666666666666 218.0051282051282,135.33333333333331 284,146 C 349.9948717948718,156.66666666666669 372.9820512820513,176.83333333333337 454,178 C 535.0179487179487,179.16666666666663 674.0666666666666,161.33333333333331 760,143 C 845.9333333333334,124.66666666666669 878.7512820512821,105.83333333333334 945,116 C 1011.2487179487179,126.16666666666666 1110.9282051282053,165.33333333333334 1199,173 C 1287.0717948717947,180.66666666666666 1363.5358974358974,156.83333333333331 1440,133 C 1440,133 1440,400 1440,400 Z"
		stroke="none"
		stroke-width="0"
		fill="url(#gradient)"
		fill-opacity="0.53"
		class="transition-all duration-300 ease-in-out delay-150 path-0"
	></path>
	<defs>
		<linearGradient id="gradient" x1="50%" y1="100%" x2="50%" y2="0%">
			<stop offset="5%" stop-color="#003566"></stop>
			<stop offset="95%" stop-color="#00b4d8"></stop>
		</linearGradient>
	</defs>
	<path
		d="M 0,400 C 0,400 0,266 0,266 C 59.28974358974358,266.1846153846154 118.57948717948716,266.3692307692308 205,260 C 291.42051282051284,253.6307692307692 404.97179487179494,240.7076923076923 487,251 C 569.0282051282051,261.2923076923077 619.5333333333333,294.8 684,299 C 748.4666666666667,303.2 826.8948717948718,278.0923076923077 918,280 C 1009.1051282051282,281.9076923076923 1112.8871794871793,310.83076923076925 1202,313 C 1291.1128205128207,315.16923076923075 1365.5564102564103,290.5846153846154 1440,266 C 1440,266 1440,400 1440,400 Z"
		stroke="none"
		stroke-width="0"
		fill="url(#gradient)"
		fill-opacity="1"
		class="transition-all duration-300 ease-in-out delay-150 path-1"
	></path>
</svg>
