<?xml version="1.0" standalone="no"?>
<!DOCTYPE svg PUBLIC "-//W3C//DTD SVG 20010904//EN"
 "http://www.w3.org/TR/2001/REC-SVG-20010904/DTD/svg10.dtd">
<svg version="1.0" xmlns="http://www.w3.org/2000/svg"
 width="270.000000pt" height="270.000000pt" viewBox="0 0 270.000000 270.000000"
 preserveAspectRatio="xMidYMid meet">
<metadata>
Created by potrace 1.14, written by Peter Selinger 2001-2017
</metadata>
<g transform="translate(0.000000,270.000000) scale(0.100000,-0.100000)"
fill="#000000" stroke="none">
<path d="M0 1350 l0 -1350 1350 0 1350 0 0 1350 0 1350 -1350 0 -1350 0 0
-1350z m1260 55 c0 -8 5 -15 10 -15 6 0 10 7 10 15 0 12 14 15 70 15 68 0 70
-1 70 -25 0 -20 -5 -25 -25 -25 -18 0 -25 -5 -25 -20 0 -11 -4 -20 -10 -20 -5
0 -10 -9 -10 -21 0 -25 -31 -60 -38 -41 -2 6 -8 12 -14 12 -10 0 -38 25 -38
35 0 10 -48 55 -60 55 -5 0 -10 11 -10 25 0 22 4 25 35 25 24 0 35 -5 35 -15z
m-110 -115 c0 -5 -11 -10 -25 -10 -14 0 -25 5 -25 10 0 6 11 10 25 10 14 0 25
-4 25 -10z m-70 -120 c0 -11 -4 -20 -10 -20 -5 0 -10 -7 -10 -15 0 -8 9 -15
20 -15 11 0 20 -4 20 -10 0 -5 5 -10 11 -10 17 0 39 -27 39 -49 0 -12 5 -21
10 -21 6 0 10 -25 10 -55 0 -49 2 -55 21 -55 26 0 49 23 49 49 0 12 5 21 10
21 6 0 10 20 10 45 0 25 5 45 10 45 6 0 10 16 10 35 0 24 5 35 15 35 10 0 15
-11 15 -35 0 -19 5 -35 10 -35 6 0 10 -20 10 -45 0 -25 5 -45 10 -45 6 0 10
-9 10 -21 0 -22 22 -49 39 -49 6 0 11 -9 11 -20 0 -11 5 -20 10 -20 6 0 10 -5
10 -11 0 -11 -25 -39 -35 -39 -14 0 -35 -30 -35 -49 0 -18 6 -21 45 -21 25 0
45 5 45 11 0 16 26 39 45 39 9 0 23 6 31 14 16 16 19 76 4 76 -5 0 -10 9 -10
20 0 11 -4 20 -10 20 -5 0 -10 16 -10 35 0 19 5 35 10 35 6 0 10 20 10 45 0
45 0 45 35 45 19 0 35 5 35 10 0 6 20 10 45 10 33 0 45 4 45 15 0 11 12 15 45
15 33 0 45 -4 45 -15 0 -10 10 -15 30 -15 23 0 30 -4 30 -20 0 -11 7 -20 15
-20 9 0 15 -9 15 -25 0 -14 5 -25 10 -25 15 0 12 -87 -2 -93 -10 -4 -9 -8 2
-17 11 -9 12 -13 3 -17 -7 -2 -13 -16 -13 -29 0 -15 -6 -24 -15 -24 -8 0 -15
-4 -15 -10 0 -5 7 -10 15 -10 8 0 15 -4 15 -10 0 -5 -7 -10 -15 -10 -8 0 -15
-4 -15 -10 0 -5 7 -10 15 -10 8 0 15 -7 15 -15 0 -8 -5 -15 -11 -15 -16 0 -39
-26 -39 -44 0 -9 -4 -16 -10 -16 -5 0 -10 -20 -10 -45 0 -25 -4 -45 -10 -45
-5 0 -10 -11 -10 -25 0 -16 -6 -25 -15 -25 -8 0 -15 -9 -15 -20 0 -11 -4 -20
-10 -20 -5 0 -10 -11 -10 -25 0 -14 -4 -25 -10 -25 -5 0 -10 -9 -10 -20 0 -11
-4 -20 -10 -20 -5 0 -10 -7 -10 -15 0 -8 -5 -15 -10 -15 -19 0 -60 -48 -60
-70 0 -11 -4 -20 -10 -20 -5 0 -10 -9 -10 -20 0 -16 -7 -20 -35 -20 -19 0 -35
-4 -35 -10 0 -5 -25 -10 -55 -10 -30 0 -55 5 -55 10 0 6 -27 10 -60 10 -33 0
-60 4 -60 10 0 6 -7 10 -16 10 -18 0 -44 23 -44 39 0 6 -5 11 -10 11 -17 0
-60 47 -60 65 0 19 -23 45 -39 45 -6 0 -11 16 -11 35 0 19 -4 35 -10 35 -5 0
-10 9 -10 20 0 11 -4 20 -10 20 -5 0 -10 16 -10 35 0 19 -4 35 -10 35 -5 0
-10 9 -10 20 0 11 -7 20 -15 20 -10 0 -15 11 -15 35 0 19 -4 35 -10 35 -5 0
-10 11 -10 25 0 14 -4 25 -10 25 -5 0 -10 20 -10 45 0 25 -4 45 -10 45 -6 0
-10 43 -10 110 0 93 2 110 16 110 22 0 44 25 44 49 0 16 6 21 25 21 14 0 25 5
25 10 0 6 5 10 10 10 6 0 10 -9 10 -20z"/>
<path d="M1150 650 c0 -11 5 -20 10 -20 6 0 10 -9 10 -21 0 -22 22 -49 39 -49
6 0 11 -4 11 -10 0 -5 9 -10 20 -10 11 0 20 5 20 10 0 6 -4 10 -10 10 -5 0
-10 5 -10 10 0 6 16 10 35 10 19 0 35 -4 35 -10 0 -5 9 -10 20 -10 11 0 20 5
20 10 0 6 25 10 55 10 30 0 55 -4 55 -10 0 -5 7 -10 15 -10 8 0 15 -4 15 -10
0 -5 14 -10 30 -10 17 0 30 5 30 10 0 6 5 10 11 10 17 0 39 27 39 49 0 12 5
21 10 21 6 0 10 9 10 20 0 17 -7 20 -45 20 -25 0 -45 -4 -45 -10 0 -6 -28 -10
-65 -10 -37 0 -65 -4 -65 -10 0 -6 -27 -10 -60 -10 -33 0 -60 4 -60 10 0 6
-25 10 -55 10 -30 0 -55 5 -55 10 0 6 -4 10 -10 10 -5 0 -10 -9 -10 -20z"/>
</g>
</svg>
