<svg xmlns="http://www.w3.org/2000/svg" width="32" height="32"><g fill="none"><path fill="#6A4C94" d="M3.39 18.945a1.055 1.055 0 10-.671 0 1.055 1.055 0 10.672 0z"/><path fill="#BB912D" d="M23 7h-8.625v23H23a3 3 0 003-3v-8.058c.002 2.404 1.438 4.152 2.656 4.152.975 0 1.282-.688 1.313-1.032V16.75c0-1.425-.313-1.656-.875-1.656-1.995 0-2.983 2.013-3.094 3.363V10a3 3 0 00-3-3z"/><path fill="#007CB2" d="M14.5 30C20.851 30 26 24.851 26 18.5S20.851 7 14.5 7a11.46 11.46 0 00-7.8 3.05l-.073 16.833A11.46 11.46 0 0014.5 30z"/><path fill="#533D71" d="M6.627 26.883A11.468 11.468 0 013 18.5a11.47 11.47 0 013.7-8.45 10.791 10.791 0 013.987 8.388c0 3.417-1.585 6.463-4.06 8.445z"/><path fill="#BB912D" d="M18 21.452v-5.874a.7.7 0 00-1.174-.516l-2.997 2.754a1 1 0 00.01 1.482l2.995 2.676A.7.7 0 0018 21.452z"/><path fill="#1C1C1C" d="M8.172 16.516a.625.625 0 11-1.25 0 .625.625 0 011.25 0z"/></g></svg>