<svg width="256" height="256" fill="none" xmlns="http://www.w3.org/2000/svg"><g clip-path="url(#prefix__clip0_25_350)"><path d="M142.222 184.889a7.108 7.108 0 01-7.111 7.111 7.108 7.108 0 01-7.111-7.111V7.111a7.11 7.11 0 0112.139-5.028 7.11 7.11 0 012.083 5.028V184.89z" fill="#A7A9AC"/><path d="M21.333 170.667h220.445v56.889H85.333c-42.666 0-64-56.889-64-56.889z" fill="#D1D3D4"/><path d="M35.556 156.444s14.222-35.555 35.555-64C92.445 64 128 35.555 128 35.555s-7.111 78.223-7.111 113.778v7.111s-21.333-7.111-42.667-7.111c-21.333 0-42.666 7.111-42.666 7.111z" fill="#FFAC33"/><path d="M142.222 14.222s42.667 42.667 64 78.223c19.705 32.839 28.445 63.999 28.445 63.999s-21.334-7.111-42.667-7.111c-21.333 0-42.667 7.111-42.667 7.111v-7.111c0-64-7.111-135.11-7.111-135.11z" fill="#F4900C"/><path d="M14.222 170.667a7.113 7.113 0 00-7.11 7.111 7.11 7.11 0 007.11 7.111H248.89v-14.222H14.222z" fill="#E6E7E8"/></g><defs><clipPath id="prefix__clip0_25_350"><path fill="#fff" d="M0 0h256v256H0z"/></clipPath></defs></svg>