<svg width="256" height="256" viewBox="0 0 256 256" fill="none" xmlns="http://www.w3.org/2000/svg">
	<g clip-path="url(#clip0_25_350)">
		<path
			d="M142.222 184.889C142.222 186.775 141.473 188.584 140.139 189.917C138.806 191.251 136.997 192 135.111 192C133.225 192 131.416 191.251 130.083 189.917C128.749 188.584 128 186.775 128 184.889V7.11111C128 5.22513 128.749 3.41639 130.083 2.0828C131.416 0.749204 133.225 0 135.111 0C136.997 0 138.806 0.749204 140.139 2.0828C141.473 3.41639 142.222 5.22513 142.222 7.11111V184.889Z"
			fill="#A7A9AC"
		/>
		<path
			d="M21.3333 170.667H241.778V227.556H85.3333C42.6667 227.556 21.3333 170.667 21.3333 170.667Z"
			fill="#D1D3D4"
		/>
		<path
			d="M35.5556 156.444C35.5556 156.444 49.7778 120.889 71.1111 92.4444C92.4445 64 128 35.5555 128 35.5555C128 35.5555 120.889 113.778 120.889 149.333V156.444C120.889 156.444 99.5556 149.333 78.2222 149.333C56.8889 149.333 35.5556 156.444 35.5556 156.444Z"
			fill="#FFAC33"
		/>
		<path
			d="M142.222 14.2222C142.222 14.2222 184.889 56.8889 206.222 92.4445C225.927 125.284 234.667 156.444 234.667 156.444C234.667 156.444 213.333 149.333 192 149.333C170.667 149.333 149.333 156.444 149.333 156.444V149.333C149.333 85.3333 142.222 14.2222 142.222 14.2222Z"
			fill="#F4900C"
		/>
		<path
			d="M14.2222 170.667C12.3362 170.667 10.5275 171.416 9.1939 172.749C7.86031 174.083 7.11111 175.892 7.11111 177.778C7.11111 179.664 7.86031 181.473 9.1939 182.806C10.5275 184.14 12.3362 184.889 14.2222 184.889H248.889V170.667H14.2222Z"
			fill="#E6E7E8"
		/>
	</g>
	<defs>
		<clipPath id="clip0_25_350">
			<rect width="256" height="256" fill="white" />
		</clipPath>
	</defs>
</svg>
