<svg xmlns="http://www.w3.org/2000/svg" width="712.96" height="740.48" viewBox="190 210 534.72 555.36"><path transform="matrix(-.8993 .43707 .43644 .898 493.47 226.97)" fill="#529c4e" fill-rule="evenodd" stroke="#529c4e" stroke-width="3.23" stroke-linecap="square" stroke-linejoin="bevel" d="M269.744 479.789c1.496-1.06.22-7.732.346-8.588 3.357-22.701 14.208-83.428 13.854-103.835-.202-11.644-23.589-21.381-23.898-37.652-.178-9.411 6.302-18.792 4.849-27.638-3.141-19.119-32.682-17.08-33.842-40.106-.367-7.273 10.045-26.167 6.877-38.545-3.44-13.44-23.725-14.131-31.616-24.804-11.711-15.839-5.291-33.185-13.854-48.627-7.544-13.605-24.931-17.369-32.853-30.225-8.684-14.095-9.84-33.603-23.403-44.813-9.717-8.032-26.337-9.887-34.782-18.046-13.788-13.32-20.13-37.257-38.098-49.408C46.739-3.713 14.112.985 13.216.932L0 4.197c.19 1.04 5.862 8.503 8.404 10.51C26.971 29.354 18.87 50.845 19.388 74.308c.589 26.686 33.25 19.705 41.066 38.5 6.504 15.638-29.28 28.395-4.7 57.483 6.393 7.566 15.372 12.069 21.374 20.187 6.411 8.671-5.816 47.044 3.563 66.071 7.035 14.274 25.377 16.791 31.418 31.92 8.43 21.115 1.064 46.5 13.26 67.119 11.513 19.465 32.88 8.197 47.646 18.848 3.393 2.447 9.788 34.154 16.872 44.055 9.151 12.789 32.799 15.21 45.47 24.648 13.555 10.097 22.512 27.726 34.387 36.649"/><path transform="matrix(-.8993 .43707 .43644 .898 461.837 334.44)" fill="none" stroke="#64b659" stroke-width="14.4" stroke-linecap="round" stroke-linejoin="bevel" d="M0 0c18.24 12.48 31.2 29.28 38.88 50.4C50.4 82.08 50.4 117.36 64.8 143.28c14.4 25.92 43.92 59.76 52.56 78.48 8.64 18.72 36.72 59.76 38.88 90"/><path transform="matrix(.99989 0 0 .99844 193.664 293.935)" fill="#79d16d" fill-rule="evenodd" stroke="#79d16d" stroke-width="3.23" stroke-linecap="square" stroke-linejoin="bevel" d="M269.744 479.789c1.496-1.06.22-7.732.346-8.588 3.357-22.701 14.208-83.428 13.854-103.835-.202-11.644-23.589-21.381-23.898-37.652-.178-9.411 6.302-18.792 4.849-27.638-3.141-19.119-32.682-17.08-33.842-40.106-.367-7.273 10.045-26.167 6.877-38.545-3.44-13.44-23.725-14.131-31.616-24.804-11.711-15.839-5.291-33.185-13.854-48.627-7.544-13.605-24.931-17.369-32.853-30.225-8.684-14.095-9.84-33.603-23.403-44.813-9.717-8.032-26.337-9.887-34.782-18.046-13.788-13.32-20.13-37.257-38.098-49.408C46.739-3.713 14.112.985 13.216.932L0 4.197c.19 1.04 5.862 8.503 8.404 10.51C26.971 29.354 18.87 50.845 19.388 74.308c.589 26.686 33.25 19.705 41.066 38.5 6.504 15.638-29.28 28.395-4.7 57.483 6.393 7.566 15.372 12.069 21.374 20.187 6.411 8.671-5.816 47.044 3.563 66.071 7.035 14.274 25.377 16.791 31.418 31.92 8.43 21.115 1.064 46.5 13.26 67.119 11.513 19.465 32.88 8.197 47.646 18.848 3.393 2.447 9.788 34.154 16.872 44.055 9.151 12.789 32.799 15.21 45.47 24.648 13.555 10.097 22.512 27.726 34.387 36.649"/><path transform="matrix(.99989 0 0 .99844 269.511 377.63)" fill="none" stroke="#64b659" stroke-width="14.4" stroke-linecap="round" stroke-linejoin="bevel" d="M0 0c18.24 12.48 31.2 29.28 38.88 50.4C50.4 82.08 50.4 117.36 64.8 143.28c14.4 25.92 43.92 59.76 52.56 78.48 8.64 18.72 36.72 59.76 38.88 90"/><path transform="matrix(.56087 .81241 -.80519 .4922 686.48 313.122)" fill="#64b659" fill-rule="evenodd" stroke="#64b659" stroke-width="3.23" stroke-linecap="square" stroke-linejoin="bevel" d="M269.744 479.789c1.496-1.06.22-7.732.346-8.588 3.357-22.701 14.208-83.428 13.854-103.835-.202-11.644-23.589-21.381-23.898-37.652-.178-9.411 6.302-18.792 4.849-27.638-3.141-19.119-32.682-17.08-33.842-40.106-.367-7.273 10.045-26.167 6.877-38.545-3.44-13.44-23.725-14.131-31.616-24.804-11.711-15.839-5.291-33.185-13.854-48.627-7.544-13.605-24.931-17.369-32.853-30.225-8.684-14.095-9.84-33.603-23.403-44.813-9.717-8.032-26.337-9.887-34.782-18.046-13.788-13.32-20.13-37.257-38.098-49.408C46.739-3.713 14.112.985 13.216.932L0 4.197c.19 1.04 5.862 8.503 8.404 10.51C26.971 29.354 18.87 50.845 19.388 74.308c.589 26.686 33.25 19.705 41.066 38.5 6.504 15.638-29.28 28.395-4.7 57.483 6.393 7.566 15.372 12.069 21.374 20.187 6.411 8.671-5.816 47.044 3.563 66.071 7.035 14.274 25.377 16.791 31.418 31.92 8.43 21.115 1.064 46.5 13.26 67.119 11.513 19.465 32.88 8.197 47.646 18.848 3.393 2.447 9.788 34.154 16.872 44.055 9.151 12.789 32.799 15.21 45.47 24.648 13.555 10.097 22.512 27.726 34.387 36.649"/><path transform="matrix(.56087 .81241 -.80519 .4922 661.993 415.24)" fill="none" stroke="#529c4e" stroke-width="14.4" stroke-linecap="round" stroke-linejoin="bevel" d="M0 0c18.24 12.48 31.2 29.28 38.88 50.4C50.4 82.08 50.4 117.36 64.8 143.28c14.4 25.92 43.92 59.76 52.56 78.48 8.64 18.72 36.72 59.76 38.88 90"/></svg>